<svg xmlns="http://www.w3.org/2000/svg" width="800" height="640" viewBox="0 0 800 640" version="1.1"><path d="M 492.636 153.494 C 492.952 154.316, 493.689 154.692, 494.275 154.330 C 494.944 153.917, 495.101 154.294, 494.698 155.345 C 494.345 156.265, 494.540 158.251, 495.131 159.759 C 495.722 161.266, 497.527 167.450, 499.142 173.500 C 500.757 179.550, 501.842 182.659, 501.553 180.409 C 501.079 176.724, 497.280 162.573, 495.401 157.500 L 494.661 155.500 497.015 157.500 C 499.083 159.257, 499.028 159.044, 496.566 155.750 C 493.741 151.971, 491.574 150.727, 492.636 153.494 M 501.235 169.111 C 501.802 171.525, 502.622 174.400, 503.056 175.500 C 505.889 182.673, 507.668 209.950, 505.917 219.354 C 504.939 224.603, 504.909 226.944, 505.790 229.354 C 506.834 232.212, 506.805 232.322, 505.470 230.559 C 504.090 228.737, 504 228.841, 504 232.250 C 504 234.248, 503.592 236.134, 503.094 236.442 C 502.595 236.750, 501.878 239.252, 501.500 242.001 C 501.122 244.751, 500.456 247, 500.020 247 C 499.584 247, 498.923 249.025, 498.552 251.500 C 498.181 253.975, 497.405 256, 496.827 256 C 496.176 256, 496.001 257.424, 496.365 259.750 C 496.736 262.118, 496.652 262.773, 496.135 261.527 C 495.461 259.900, 494.546 261.125, 490.909 268.527 C 488.484 273.462, 486.163 277.650, 485.750 277.833 C 485.337 278.017, 485 278.749, 485 279.461 C 485 280.173, 484.296 281.339, 483.436 282.053 C 482.402 282.911, 482.073 284.225, 482.466 285.926 C 482.900 287.802, 482.796 288.101, 482.085 287.029 C 480.966 285.342, 481.110 285.221, 477.961 290.500 C 476.649 292.700, 475.108 295.013, 474.537 295.639 C 473.967 296.266, 472.600 298.038, 471.500 299.577 C 468.279 304.085, 461.774 312.296, 459.282 315 C 458.016 316.375, 457.204 318.086, 457.478 318.802 C 457.754 319.522, 457.518 319.820, 456.948 319.468 C 456.383 319.118, 454.925 320.098, 453.710 321.645 C 450.021 326.342, 441.415 335.465, 421.500 355.794 C 411.050 366.461, 402.562 375.817, 402.637 376.584 C 402.712 377.351, 402.466 377.788, 402.089 377.555 C 400.991 376.877, 399.898 377.946, 390.906 388.500 C 378.632 402.904, 373.708 409.718, 374.568 411.110 C 375.009 411.823, 374.886 412.048, 374.266 411.664 C 373.193 411.001, 368 417.025, 368 418.933 C 368 419.520, 367.559 420, 367.019 420 C 366.480 420, 365.756 421.125, 365.411 422.500 C 365.066 423.875, 364.382 425, 363.892 425 C 363.401 425, 363 425.513, 363 426.139 C 363 426.766, 361.650 429.473, 360 432.154 C 358.350 434.836, 357 437.698, 357 438.515 C 357 439.332, 356.570 440, 356.045 440 C 355.520 440, 354.795 441.575, 354.434 443.500 C 354.073 445.425, 353.417 447, 352.977 447 C 352.536 447, 351.860 448.913, 351.475 451.250 C 351.089 453.587, 350.363 456.011, 349.860 456.635 C 349.357 457.259, 348.666 460.776, 348.322 464.450 C 347.979 468.124, 347.384 470.622, 347 470 C 345.799 468.056, 345.024 491.074, 345.990 500 C 347.291 512.017, 349.186 522, 350.165 522 C 350.624 522, 351.003 523.237, 351.006 524.750 C 351.010 526.263, 351.685 528.789, 352.506 530.364 C 353.328 531.940, 354 533.656, 354 534.178 C 354 535.554, 362.833 554.832, 363.999 556.003 C 364.275 556.279, 365.586 558.529, 366.913 561.003 C 372.293 571.027, 380.543 582.931, 381.802 582.484 C 382.518 582.231, 382.825 582.475, 382.483 583.027 C 381.920 583.938, 390.961 597.372, 391.664 596.669 C 391.974 596.359, 390.348 591.042, 388.861 587.500 C 387.003 583.076, 385.704 569.676, 385.710 555 C 385.716 540.788, 387.370 524.216, 388.904 523 C 389.577 522.466, 391.791 515.298, 392.686 510.750 C 392.983 509.238, 393.626 508, 394.113 508 C 394.601 508, 395.015 507.212, 395.034 506.250 C 395.053 505.288, 395.937 502.700, 397 500.500 C 398.063 498.300, 398.947 495.938, 398.966 495.250 C 398.985 494.563, 399.414 494, 399.921 494 C 400.427 494, 401.138 492.650, 401.500 491 C 401.862 489.350, 402.573 488, 403.079 488 C 403.586 488, 404 487.325, 404 486.500 C 404 485.675, 404.363 485, 404.808 485 C 405.252 485, 406.360 483.313, 407.270 481.250 C 408.180 479.188, 409.612 476.600, 410.453 475.500 C 411.293 474.400, 415.199 469, 419.132 463.500 C 429.478 449.033, 445.951 429.934, 459.342 416.878 C 460.905 415.354, 461.884 413.622, 461.518 413.029 C 461.151 412.436, 461.222 412.015, 461.676 412.094 C 464.020 412.501, 465.161 411.863, 464.618 410.448 C 464.291 409.594, 464.443 409.156, 464.956 409.473 C 466.231 410.261, 482.117 393.998, 481.324 392.716 C 480.941 392.095, 481.190 391.999, 481.957 392.474 C 482.654 392.904, 483.511 392.810, 483.862 392.266 C 484.213 391.721, 487.558 387.884, 491.295 383.739 C 495.032 379.594, 498.997 375.145, 500.105 373.851 C 501.214 372.558, 503.007 370.470, 504.089 369.210 C 507.722 364.981, 520.663 347.543, 523.381 343.213 C 524.861 340.855, 525.759 338.380, 525.376 337.713 C 524.993 337.046, 525.054 336.840, 525.512 337.256 C 526.408 338.069, 531.989 330.319, 531.996 328.250 C 531.998 327.563, 532.450 327, 533 327 C 533.550 327, 534.015 326.438, 534.034 325.750 C 534.053 325.063, 534.937 322.700, 536 320.500 C 537.063 318.300, 537.947 315.750, 537.966 314.833 C 537.985 313.917, 538.337 313.017, 538.750 312.833 C 539.863 312.339, 543 302.626, 543 299.675 C 543 298.269, 543.505 296.806, 544.123 296.424 C 544.840 295.981, 545.050 293.876, 544.703 290.615 C 544.330 287.103, 544.447 286.127, 545.075 287.500 C 545.655 288.768, 545.889 282.312, 545.715 269.867 C 545.541 257.475, 545.034 249.731, 544.338 248.867 C 543.733 248.115, 542.984 245.925, 542.674 244 C 541.772 238.389, 539.605 231, 538.861 231 C 538.484 231, 537.872 229.200, 537.500 227 C 537.128 224.800, 536.464 223, 536.023 223 C 535.583 223, 534.927 221.425, 534.566 219.500 C 533.901 215.953, 532.615 214.970, 531.623 217.250 C 531.324 217.938, 531.336 217.259, 531.650 215.743 C 532 214.051, 531.613 212.058, 530.649 210.588 C 529.785 209.269, 527.666 205.560, 525.939 202.345 C 523.165 197.181, 512.388 180.325, 511.013 179 C 510.728 178.725, 509.247 176.700, 507.722 174.500 C 506.197 172.300, 503.881 169.200, 502.576 167.611 L 500.204 164.723 501.235 169.111 M 509.109 173.250 C 515.558 181.835, 517.935 184.661, 516.465 182 C 515.089 179.509, 503.947 165, 503.410 165 C 503.135 165, 505.699 168.713, 509.109 173.250 M 503.180 205.500 C 503.043 213.200, 502.280 223.100, 501.485 227.500 C 499.873 236.423, 499.734 238.468, 500.943 235.489 C 502.681 231.204, 504.125 214.958, 503.786 203.500 L 503.430 191.500 503.180 205.500 M 533.202 211.478 C 534.398 213.941, 535.549 215.785, 535.758 215.575 C 536.211 215.123, 532.170 207, 531.493 207 C 531.236 207, 532.005 209.015, 533.202 211.478 M 496.727 246.762 C 495.202 251.568, 491.740 260.113, 489.034 265.750 C 486.327 271.387, 484.340 276, 484.618 276 C 486.440 276, 500.628 241.363, 499.804 238.925 C 499.637 238.430, 498.252 241.957, 496.727 246.762 M 544.124 238.500 C 544.077 239.050, 544.665 241.750, 545.430 244.500 C 546.195 247.250, 546.827 248.600, 546.834 247.500 C 546.847 245.371, 544.269 236.808, 544.124 238.500 M 547.814 256 C 548.191 259.575, 548.468 268.800, 548.429 276.500 C 548.368 288.320, 548.496 289.566, 549.247 284.500 C 550.231 277.856, 549.496 258.462, 548.052 253 C 547.372 250.426, 547.309 251.220, 547.814 256 M 475.639 289 C 473.079 292.850, 471.196 296, 471.455 296 C 471.714 296, 473.664 293.413, 475.789 290.250 C 480.494 283.247, 481.237 282, 480.706 282 C 480.479 282, 478.199 285.150, 475.639 289 M 465.451 303.250 C 462.787 306.688, 461.521 308.710, 462.637 307.746 C 464.735 305.933, 471.445 297, 470.710 297 C 470.482 297, 468.115 299.813, 465.451 303.250 M 454.919 316.250 C 451.960 319.688, 450.331 321.871, 451.300 321.102 C 453.336 319.486, 461.405 310, 460.743 310 C 460.499 310, 457.879 312.813, 454.919 316.250 M 539.200 318.200 C 538.002 321.035, 537.181 323.514, 537.375 323.708 C 537.569 323.902, 538.720 321.753, 539.933 318.933 C 541.147 316.113, 541.968 313.635, 541.759 313.425 C 541.549 313.216, 540.398 315.365, 539.200 318.200 M 425.930 347.291 C 399.735 374.197, 376.408 400, 378.279 400 C 378.535 400, 383.392 394.488, 389.074 387.750 C 394.755 381.012, 408.650 366.044, 419.951 354.487 C 444.034 329.860, 450.595 322.985, 449.962 323.041 C 449.708 323.063, 438.894 333.976, 425.930 347.291 M 508.888 366.250 C 506.525 369.137, 501.647 374.875, 498.049 379 C 494.452 383.125, 492.324 385.857, 493.321 385.072 C 494.792 383.914, 502.427 375.184, 512.844 362.750 C 513.650 361.788, 514.057 361, 513.748 361 C 513.439 361, 511.252 363.363, 508.888 366.250 M 469.886 408.787 C 458.124 420.770, 445.621 433.932, 442.103 438.037 C 437.655 443.227, 438.551 442.454, 445.045 435.500 C 450.181 430, 462.945 416.837, 473.408 406.250 C 483.872 395.663, 492.171 387, 491.852 387 C 491.533 387, 481.649 396.804, 469.886 408.787 M 368.218 413.250 C 364.568 418.640, 363.779 420, 364.299 420 C 364.529 420, 366.360 417.525, 368.369 414.500 C 370.377 411.475, 371.812 409, 371.558 409 C 371.304 409, 369.801 410.913, 368.218 413.250 M 361.771 423.250 C 359.583 426.623, 357.621 430.640, 358.718 429.500 C 360.120 428.043, 364.245 421, 363.697 421 C 363.440 421, 362.573 422.012, 361.771 423.250 M 350.625 444.979 C 348.369 450.619, 348.716 451.458, 351.092 446.104 C 352.164 443.687, 352.864 441.530, 352.646 441.313 C 352.428 441.095, 351.519 442.745, 350.625 444.979 M 425.894 457.250 C 423.609 460.137, 419.982 465.200, 417.832 468.500 C 413.373 475.346, 415.119 473.283, 424.391 460.750 C 431.517 451.119, 432.434 448.981, 425.894 457.250 M 345.128 461.405 C 344.508 463.869, 344.037 466.699, 344.083 467.693 C 344.129 468.687, 344.810 466.843, 345.595 463.595 C 346.381 460.348, 346.851 457.518, 346.640 457.307 C 346.429 457.096, 345.749 458.940, 345.128 461.405 M 342.636 474.640 C 341.810 480.663, 341.918 499.393, 342.808 504.396 C 343.188 506.538, 343.500 499.676, 343.500 489.146 C 343.500 478.616, 343.449 470, 343.386 470 C 343.323 470, 342.986 472.088, 342.636 474.640 M 408.760 482.250 C 406.610 485.539, 402.618 493.671, 403.728 492.500 C 404.959 491.200, 411.138 480, 410.624 480 C 410.407 480, 409.568 481.012, 408.760 482.250 M 399.276 500.727 C 397.619 504.452, 395.977 508.625, 395.627 510 L 394.989 512.500 396.179 510 C 399.611 502.786, 402.974 494.641, 402.653 494.320 C 402.452 494.119, 400.933 497.002, 399.276 500.727 M 344.162 511 C 344.154 513.424, 346.727 522.509, 346.853 520.500 C 346.887 519.950, 346.298 517.025, 345.543 514 C 344.788 510.975, 344.166 509.625, 344.162 511 M 393.091 517.091 C 392.415 519.348, 392.045 521.379, 392.270 521.604 C 392.495 521.829, 393.233 520.166, 393.909 517.909 C 394.585 515.652, 394.955 513.621, 394.730 513.396 C 394.505 513.171, 393.767 514.834, 393.091 517.091 M 347.074 522.556 C 346.969 524.054, 351.142 536.191, 351.604 535.730 C 351.814 535.520, 350.898 532.232, 349.567 528.424 C 348.237 524.616, 347.115 521.975, 347.074 522.556 M 390 529.500 C 389.316 533.124, 388.959 536.292, 389.206 536.540 C 389.454 536.787, 390.205 534.013, 390.875 530.375 C 391.545 526.737, 391.902 523.569, 391.669 523.335 C 391.435 523.101, 390.684 525.876, 390 529.500 M 387.642 544.147 C 386.849 551.740, 386.947 560.905, 387.892 567.500 C 388.354 570.726, 388.626 566.378, 388.658 555.250 C 388.685 545.763, 388.612 538, 388.496 538 C 388.380 538, 387.996 540.766, 387.642 544.147 M 355 544.367 C 355 545.450, 359.970 555, 360.534 555 C 360.809 555, 359.847 552.638, 358.397 549.750 C 355.607 544.197, 355 543.235, 355 544.367 M 361 556.443 C 361 557.182, 365.167 564, 365.619 564 C 365.851 564, 365.122 562.200, 364 560 C 362.209 556.489, 361 555.056, 361 556.443 M 389.136 574.876 C 388.980 577.606, 392.986 595.348, 393.616 594.717 C 393.846 594.488, 393.154 590.520, 392.080 585.900 C 391.005 581.280, 389.934 576.375, 389.699 575 C 389.274 572.512, 389.272 572.511, 389.136 574.876 M 380.140 586.545 C 381.935 589.045, 384.076 591.632, 384.897 592.295 C 385.718 592.958, 384.448 590.913, 382.075 587.750 C 376.968 580.945, 375.431 579.988, 380.140 586.545 M 393.177 603.194 C 397.373 608.721, 399 610.064, 399 608 C 399 607.450, 398.523 607, 397.941 607 C 397.359 607, 397.167 606.539, 397.515 605.975 C 397.864 605.412, 397.710 605.074, 397.173 605.225 C 396.636 605.376, 394.545 603.700, 392.526 601.500 C 389.220 597.898, 389.284 598.066, 393.177 603.194" stroke="none" fill="#d32e12" fill-rule="evenodd"/><path d="M 401.533 32.750 C 403.666 37.745, 408.273 54.597, 409.667 62.500 C 411.997 75.716, 411.761 96.943, 409.144 109.500 C 406.141 123.910, 403.709 130.851, 396.531 145.500 C 383.549 171.996, 368.259 191.316, 326.494 234 C 291.634 269.627, 275.446 290.239, 263.222 314.562 C 255.063 330.797, 249.993 351.136, 250.026 367.500 C 250.078 393.910, 261.552 425.656, 281.785 455.376 C 288.678 465.501, 306.100 488, 307.048 488 C 307.435 488, 306.641 484.962, 305.284 481.250 C 295.148 453.531, 294.342 420.556, 303.138 393.548 C 313.252 362.494, 333.200 334.308, 376.029 290.555 C 410.236 255.609, 425.869 237.012, 438.277 216.500 C 459.214 181.891, 463.413 148.799, 451.489 112.396 C 444.134 89.942, 432.089 69.146, 409.979 40.726 C 402.955 31.697, 399.820 28.737, 401.533 32.750" stroke="none" fill="#54c247" fill-rule="evenodd"/><path d="M 401.533 32.750 C 403.666 37.745, 408.273 54.597, 409.667 62.500 C 411.997 75.716, 411.761 96.943, 409.144 109.500 C 406.141 123.910, 403.709 130.851, 396.531 145.500 C 383.549 171.996, 368.259 191.316, 326.494 234 C 291.634 269.627, 275.446 290.239, 263.222 314.562 C 255.063 330.797, 249.993 351.136, 250.026 367.500 C 250.078 393.910, 261.552 425.656, 281.785 455.376 C 288.678 465.501, 306.100 488, 307.048 488 C 307.435 488, 306.641 484.962, 305.284 481.250 C 295.148 453.531, 294.342 420.556, 303.138 393.548 C 313.252 362.494, 333.200 334.308, 376.029 290.555 C 410.236 255.609, 425.869 237.012, 438.277 216.500 C 459.214 181.891, 463.413 148.799, 451.489 112.396 C 444.134 89.942, 432.089 69.146, 409.979 40.726 C 402.955 31.697, 399.820 28.737, 401.533 32.750" stroke="none" fill="#54c247" fill-rule="evenodd"/><path d="M 0 320.001 L 0 640.002 400.250 639.751 L 800.500 639.500 800.752 319.750 L 801.003 0 400.502 0 L 0 0 0 320.001 M 0.494 320.500 C 0.494 496.500, 0.609 568.351, 0.750 480.169 C 0.891 391.987, 0.891 247.987, 0.750 160.169 C 0.609 72.351, 0.494 144.500, 0.494 320.500 M 399 29.831 C 399 30.804, 399.376 32.028, 399.835 32.550 C 401.313 34.233, 405.271 46.731, 407.102 55.500 C 410.957 73.962, 410.944 96.681, 407.068 114.440 C 404.205 127.558, 396.404 145.690, 387.265 160.471 C 379.268 173.405, 366.708 190.019, 365.301 189.524 C 364.641 189.292, 364.318 189.666, 364.583 190.355 C 365.181 191.913, 344.172 215.224, 342.885 214.429 C 342.371 214.111, 342.015 214.222, 342.094 214.676 C 342.493 216.972, 341.859 218.160, 340.512 217.643 C 339.694 217.329, 339.072 217.393, 339.130 217.786 C 339.455 219.961, 338.836 221.151, 337.624 220.686 C 336.773 220.359, 336.297 220.795, 336.374 221.829 C 336.451 222.843, 335.817 223.446, 334.761 223.363 C 333.804 223.288, 333.290 223.659, 333.617 224.189 C 334.405 225.464, 330.262 229.280, 328.962 228.477 C 328.406 228.133, 328.015 228.222, 328.094 228.676 C 328.480 230.899, 327.864 232.162, 326.624 231.686 C 325.773 231.359, 325.297 231.795, 325.374 232.829 C 325.451 233.843, 324.817 234.446, 323.761 234.363 C 322.804 234.288, 322.284 234.651, 322.605 235.170 C 323.392 236.444, 316.255 243.276, 314.968 242.480 C 314.409 242.134, 314.015 242.222, 314.094 242.676 C 314.501 245.020, 313.863 246.161, 312.448 245.618 C 311.487 245.250, 311.150 245.434, 311.563 246.102 C 312.402 247.459, 305.028 255.135, 303.683 254.304 C 303.100 253.944, 303.009 254.205, 303.462 254.939 C 303.947 255.724, 302.779 257.728, 300.312 260.343 C 286.231 275.271, 269.220 299.296, 262.322 314 C 252.382 335.185, 250.077 344.030, 249.292 364 C 248.804 376.408, 249.583 383.818, 252.709 396.500 C 253.522 399.800, 254.551 403.400, 254.996 404.500 C 255.441 405.600, 256.827 409.425, 258.077 413 C 259.326 416.575, 262.744 424.211, 265.672 429.970 C 268.906 436.330, 270.804 441.237, 270.507 442.470 C 270.238 443.586, 270.277 443.938, 270.593 443.250 C 271.530 441.210, 272.433 441.786, 274.511 445.750 C 275.592 447.813, 277.726 451.264, 279.252 453.419 C 281.068 455.983, 281.827 458.058, 281.448 459.419 C 281.039 460.890, 281.142 461.107, 281.801 460.158 C 282.523 459.116, 283.225 459.507, 284.929 461.901 C 286.138 463.598, 286.850 465.434, 286.511 465.982 C 286.168 466.537, 286.526 466.736, 287.319 466.431 C 288.102 466.131, 288.995 466.545, 289.305 467.353 C 289.989 469.136, 305.057 487.978, 307.254 489.799 C 309.574 491.720, 310.411 489.549, 308.623 486.252 C 302.959 475.809, 298.080 451.363, 298.095 433.500 C 298.105 421.314, 300.585 402.917, 302.948 397.500 C 303.428 396.400, 304.579 393.025, 305.505 390 C 308.302 380.866, 317.503 362.993, 325.631 350.904 C 329.848 344.632, 333.581 339.275, 333.925 339 C 334.270 338.725, 336.098 336.475, 337.987 334 C 343.700 326.518, 351.988 316.994, 361.048 307.500 C 385.005 282.395, 398.368 269.109, 399.165 269.602 C 399.651 269.903, 399.985 269.778, 399.906 269.324 C 399.499 266.980, 400.137 265.839, 401.552 266.382 C 402.554 266.766, 402.854 266.573, 402.399 265.837 C 402.012 265.210, 402.327 264.202, 403.101 263.598 C 404.709 262.343, 416.060 249.180, 418.331 245.938 C 419.251 244.624, 420.322 244.081, 421.075 244.546 C 421.850 245.025, 422.054 244.897, 421.623 244.199 C 421.246 243.589, 424.014 238.907, 427.774 233.795 C 431.534 228.683, 436.428 221.575, 438.649 218 C 442.523 211.766, 451 194.950, 451 193.500 C 451 193.116, 451.659 191.384, 452.465 189.651 C 454.559 185.148, 455.923 179.240, 458.157 165 C 460.029 153.074, 460.045 151.903, 458.521 139.500 C 457.643 132.350, 456.516 125.150, 456.018 123.500 C 451.873 109.780, 450.596 105.959, 448.921 102.261 C 447.864 99.929, 447 97.729, 447 97.370 C 447 96.595, 442.722 87.720, 442.001 86.999 C 441.725 86.724, 440.666 84.924, 439.647 82.999 C 438.628 81.075, 436.471 77.126, 434.853 74.225 C 433.236 71.324, 432.181 68.517, 432.508 67.987 C 432.836 67.457, 432.518 67.222, 431.802 67.466 C 431.046 67.724, 429.033 65.582, 427 62.355 C 423.599 56.957, 418.050 49.516, 407.239 35.853 C 401.640 28.778, 399 26.848, 399 29.831 M 490 150.277 C 490 150.980, 490.589 152.443, 491.308 153.527 C 492.027 154.612, 493.440 158.200, 494.448 161.500 C 495.456 164.800, 496.639 168.400, 497.077 169.500 C 500.415 177.884, 502.659 203.835, 501.250 217.767 C 499.972 230.405, 498.131 241.096, 496.991 242.500 C 496.544 243.050, 495.863 245.192, 495.476 247.261 C 495.090 249.330, 494.374 251.269, 493.887 251.570 C 493.399 251.871, 493 252.780, 493 253.588 C 493 256.428, 481.837 277.975, 475.336 287.686 C 466.877 300.320, 465.914 301.417, 464.729 299.774 C 464.095 298.894, 464 299.080, 464.423 300.377 C 465.130 302.546, 463.269 305.284, 461.732 304.334 C 461.114 303.953, 460.992 304.178, 461.431 304.888 C 462.055 305.898, 457.070 312.731, 451.283 318.799 C 450.602 319.514, 449.347 321.089, 448.494 322.299 C 447.173 324.175, 446.800 324.278, 445.969 323 C 445.187 321.797, 445.044 321.923, 445.247 323.636 C 445.435 325.223, 439.895 331.573, 423.655 348.386 C 411.605 360.860, 401.335 370.707, 400.750 370.346 C 400.168 369.986, 399.981 370.160, 400.334 370.732 C 401.135 372.028, 398.617 374.256, 397.498 373.241 C 397.048 372.834, 396.979 373.023, 397.345 373.663 C 398.182 375.125, 391.083 383.169, 389.706 382.318 C 389.115 381.953, 388.999 382.190, 389.428 382.883 C 389.862 383.585, 388.786 385.603, 386.813 387.788 C 384.969 389.829, 382.718 392.561, 381.810 393.858 C 380.792 395.314, 379.687 395.925, 378.925 395.454 C 378.155 394.978, 377.946 395.103, 378.369 395.788 C 378.742 396.392, 376.035 400.977, 372.354 405.977 C 367.477 412.602, 365.410 414.721, 364.736 413.785 C 364.086 412.882, 363.989 413.047, 364.410 414.343 C 364.789 415.509, 363.639 418.404, 361.274 422.235 C 357.799 427.866, 357.487 428.119, 356.788 425.893 C 356.156 423.880, 356.100 423.976, 356.435 426.500 C 356.683 428.366, 355.942 431.202, 354.477 434 C 353.180 436.475, 351.154 440.975, 349.974 444 C 348.794 447.025, 347.474 450.190, 347.041 451.033 C 346.609 451.876, 345.946 454.126, 345.569 456.033 C 345.192 457.940, 344.484 460.400, 343.995 461.500 C 343.507 462.600, 342.379 469.065, 341.489 475.866 C 339.989 487.327, 339.993 489.193, 341.541 501.366 C 342.460 508.590, 343.569 515.175, 344.007 516 C 344.445 516.825, 345.124 519.643, 345.517 522.262 C 345.909 524.882, 346.629 527.271, 347.115 527.571 C 347.602 527.872, 348 528.811, 348 529.658 C 348 530.505, 348.675 532.728, 349.500 534.599 C 350.325 536.469, 351.711 539.606, 352.580 541.570 C 353.449 543.533, 353.904 545.807, 353.592 546.622 C 353.279 547.437, 353.445 547.843, 353.961 547.524 C 355.383 546.645, 357.195 550.775, 356.490 553.288 C 356.045 554.874, 356.140 555.108, 356.827 554.115 C 357.601 552.996, 358.008 553.147, 358.948 554.903 C 359.587 556.098, 359.865 558.071, 359.565 559.288 C 359.264 560.504, 359.277 560.938, 359.593 560.250 C 360.274 558.767, 362 558.577, 362 559.985 C 362 560.527, 363.332 563.135, 364.960 565.780 C 366.823 568.808, 367.717 571.366, 367.373 572.683 C 367.072 573.833, 367.273 575.051, 367.820 575.389 C 368.407 575.751, 368.599 575.184, 368.290 574.001 C 367.997 572.882, 368.259 572, 368.883 572 C 369.498 572, 370 572.469, 370 573.042 C 370 574.027, 372.997 578.437, 379.287 586.704 C 380.819 588.719, 381.855 590.937, 381.587 591.633 C 381.269 592.462, 381.660 592.684, 382.725 592.275 C 383.936 591.811, 384.186 592.074, 383.710 593.314 C 383.359 594.228, 383.433 594.869, 383.875 594.738 C 385.264 594.326, 390.185 600.892, 389.417 602.134 C 388.985 602.833, 389.121 603.043, 389.754 602.652 C 391.183 601.769, 396.250 607.907, 395.565 609.692 C 395.267 610.469, 395.458 610.835, 395.991 610.506 C 396.523 610.177, 397.868 610.394, 398.979 610.989 C 400.666 611.891, 401 611.767, 401 610.235 C 401 609.226, 400.613 607.973, 400.140 607.450 C 399.667 606.928, 398.480 604.025, 397.503 601 C 396.526 597.975, 395.345 594.600, 394.877 593.500 C 394.099 591.667, 393.615 589.281, 391.023 574.500 C 389.896 568.076, 389.886 542.010, 391.007 535.500 C 393.055 523.608, 396.004 513.213, 399.573 505.300 C 407.198 488.392, 409.217 484.726, 410.154 486.085 C 410.902 487.169, 411.015 487.032, 410.637 485.500 C 410.039 483.077, 419.083 468.364, 420.919 468.775 C 421.595 468.926, 421.864 468.589, 421.517 468.027 C 420.658 466.637, 433.192 449.954, 434.699 450.480 C 435.359 450.710, 435.682 450.334, 435.417 449.645 C 434.819 448.087, 455.828 424.776, 457.115 425.571 C 457.629 425.889, 457.985 425.778, 457.906 425.324 C 457.507 423.028, 458.141 421.840, 459.488 422.357 C 460.306 422.671, 460.928 422.607, 460.870 422.214 C 460.545 420.039, 461.164 418.849, 462.376 419.314 C 463.227 419.641, 463.703 419.205, 463.626 418.171 C 463.549 417.157, 464.183 416.554, 465.239 416.637 C 466.196 416.712, 466.710 416.341, 466.383 415.811 C 465.595 414.536, 469.738 410.720, 471.038 411.523 C 471.594 411.867, 471.985 411.778, 471.906 411.324 C 471.520 409.101, 472.136 407.838, 473.376 408.314 C 474.227 408.641, 474.703 408.205, 474.626 407.171 C 474.553 406.206, 475.183 405.549, 476.117 405.617 C 477.029 405.682, 477.682 405.029, 477.617 404.117 C 477.535 402.984, 478.248 402.556, 480 402.687 C 481.375 402.789, 481.938 402.639, 481.250 402.353 C 479.465 401.611, 479.696 399.669, 481.488 400.357 C 482.306 400.671, 482.928 400.607, 482.870 400.214 C 482.535 397.969, 483.168 396.851, 484.488 397.357 C 485.306 397.671, 485.928 397.607, 485.870 397.214 C 485.528 394.921, 486.164 393.849, 487.552 394.382 C 488.513 394.750, 488.850 394.566, 488.437 393.898 C 487.598 392.541, 494.972 384.865, 496.317 385.696 C 496.899 386.056, 496.991 385.795, 496.540 385.064 C 495.438 383.282, 503.074 375.562, 504.261 377.258 C 504.818 378.053, 504.919 377.741, 504.543 376.391 C 504.168 375.048, 504.576 373.777, 505.665 372.891 C 507.175 371.662, 507.296 371.710, 506.699 373.302 C 506.283 374.410, 506.414 374.862, 507.038 374.477 C 507.596 374.131, 507.988 373.321, 507.908 372.675 C 507.575 369.978, 508.082 368.818, 509.376 369.314 C 510.132 369.604, 510.695 369.315, 510.626 368.671 C 510.557 368.027, 514.530 361.998, 519.456 355.274 C 525.699 346.751, 528.681 343.419, 529.300 344.274 C 529.893 345.091, 529.991 344.892, 529.597 343.674 C 528.912 341.564, 533.714 332.705, 535.084 333.552 C 535.575 333.855, 535.743 333.495, 535.458 332.750 C 535.172 332.006, 536.302 328.841, 537.969 325.717 C 539.636 322.594, 541 319.354, 541 318.519 C 541 316.686, 542.607 316.506, 543.407 318.250 C 543.723 318.938, 543.724 318.468, 543.410 317.206 C 543.087 315.912, 543.942 311.774, 545.375 307.706 C 549.314 296.517, 550.432 288.738, 550.432 272.500 C 550.432 256.022, 548.519 243.150, 545.004 235.967 C 544.592 235.124, 543.915 232.889, 543.500 231 C 543.085 229.111, 542.403 226.876, 541.983 226.033 C 533.874 209.734, 529.036 198.978, 529.318 197.878 C 529.513 197.120, 529.483 196.838, 529.253 197.250 C 528.546 198.514, 527 198.083, 527 196.622 C 527 195.865, 526.294 194.659, 525.430 193.942 C 524.567 193.226, 524.075 191.820, 524.337 190.818 C 524.599 189.817, 524.422 189.239, 523.945 189.534 C 522.507 190.422, 517.866 182.547, 518.565 180.407 C 519.003 179.069, 518.910 178.887, 518.256 179.797 C 516.926 181.648, 514.760 178.883, 515.577 176.377 C 516.031 174.984, 515.938 174.850, 515.219 175.857 C 514.033 177.518, 512.499 175.619, 513.595 173.845 C 514 173.191, 513.873 172.960, 513.303 173.313 C 511.897 174.182, 501.662 161.356, 502.578 159.874 C 503.009 159.176, 502.881 158.955, 502.267 159.335 C 501.693 159.690, 499.501 157.847, 497.396 155.240 C 492.306 148.937, 490 147.390, 490 150.277" stroke="none" fill="#fdfcfc" fill-rule="evenodd"/><path d="M 494.454 155.500 C 500.151 169.760, 503.027 183.961, 503.695 201.133 C 504.935 233.018, 497.209 257.867, 476.233 289.451 C 463.960 307.930, 451.452 322.412, 420.481 354 C 372.491 402.947, 352.388 432.859, 344.875 466.500 C 343.094 474.475, 343.089 503.491, 344.867 511.500 C 349.093 530.534, 359.228 553.804, 371.476 572.595 C 377.446 581.752, 389.676 598.118, 394.947 604 L 398.084 607.500 396.533 604.282 C 393.981 598.988, 389.313 579.224, 387.977 568.057 C 385.192 544.774, 390.499 517.958, 402.734 493.500 C 414.728 469.525, 433.174 446.278, 470.582 407.990 C 519.243 358.185, 537.932 330.844, 546.144 297.445 C 549.008 285.797, 549.230 261.789, 546.586 249.500 C 541.389 225.337, 528.740 199.418, 509.743 174 C 500.037 161.013, 493.493 153.095, 494.454 155.500 M 501.235 169.111 C 501.802 171.525, 502.622 174.400, 503.056 175.500 C 505.889 182.673, 507.668 209.950, 505.917 219.354 C 504.939 224.603, 504.909 226.944, 505.790 229.354 C 506.834 232.212, 506.805 232.322, 505.470 230.559 C 504.090 228.737, 504 228.841, 504 232.250 C 504 234.248, 503.592 236.134, 503.094 236.442 C 502.595 236.750, 501.878 239.252, 501.500 242.001 C 501.122 244.751, 500.456 247, 500.020 247 C 499.584 247, 498.923 249.025, 498.552 251.500 C 498.181 253.975, 497.405 256, 496.827 256 C 496.176 256, 496.001 257.424, 496.365 259.750 C 496.736 262.118, 496.652 262.773, 496.135 261.527 C 495.461 259.900, 494.546 261.125, 490.909 268.527 C 488.484 273.462, 486.163 277.650, 485.750 277.833 C 485.337 278.017, 485 278.749, 485 279.461 C 485 280.173, 484.296 281.339, 483.436 282.053 C 482.402 282.911, 482.073 284.225, 482.466 285.926 C 482.900 287.802, 482.796 288.101, 482.085 287.029 C 480.966 285.342, 481.110 285.221, 477.961 290.500 C 476.649 292.700, 475.108 295.013, 474.537 295.639 C 473.967 296.266, 472.600 298.038, 471.500 299.577 C 468.279 304.085, 461.774 312.296, 459.282 315 C 458.016 316.375, 457.204 318.086, 457.478 318.802 C 457.754 319.522, 457.518 319.820, 456.948 319.468 C 456.383 319.118, 454.925 320.098, 453.710 321.645 C 450.021 326.342, 441.415 335.465, 421.500 355.794 C 411.050 366.461, 402.562 375.817, 402.637 376.584 C 402.712 377.351, 402.466 377.788, 402.089 377.555 C 400.991 376.877, 399.898 377.946, 390.906 388.500 C 378.632 402.904, 373.708 409.718, 374.568 411.110 C 375.009 411.823, 374.886 412.048, 374.266 411.664 C 373.193 411.001, 368 417.025, 368 418.933 C 368 419.520, 367.559 420, 367.019 420 C 366.480 420, 365.756 421.125, 365.411 422.500 C 365.066 423.875, 364.382 425, 363.892 425 C 363.401 425, 363 425.513, 363 426.139 C 363 426.766, 361.650 429.473, 360 432.154 C 358.350 434.836, 357 437.698, 357 438.515 C 357 439.332, 356.570 440, 356.045 440 C 355.520 440, 354.795 441.575, 354.434 443.500 C 354.073 445.425, 353.417 447, 352.977 447 C 352.536 447, 351.860 448.913, 351.475 451.250 C 351.089 453.587, 350.363 456.011, 349.860 456.635 C 349.357 457.259, 348.666 460.776, 348.322 464.450 C 347.979 468.124, 347.384 470.622, 347 470 C 345.799 468.056, 345.024 491.074, 345.990 500 C 347.291 512.017, 349.186 522, 350.165 522 C 350.624 522, 351.003 523.237, 351.006 524.750 C 351.010 526.263, 351.685 528.789, 352.506 530.364 C 353.328 531.940, 354 533.656, 354 534.178 C 354 535.554, 362.833 554.832, 363.999 556.003 C 364.275 556.279, 365.586 558.529, 366.913 561.003 C 372.293 571.027, 380.543 582.931, 381.802 582.484 C 382.518 582.231, 382.825 582.475, 382.483 583.027 C 381.920 583.938, 390.961 597.372, 391.664 596.669 C 391.974 596.359, 390.348 591.042, 388.861 587.500 C 387.003 583.076, 385.704 569.676, 385.710 555 C 385.716 540.788, 387.370 524.216, 388.904 523 C 389.577 522.466, 391.791 515.298, 392.686 510.750 C 392.983 509.238, 393.626 508, 394.113 508 C 394.601 508, 395.015 507.212, 395.034 506.250 C 395.053 505.288, 395.937 502.700, 397 500.500 C 398.063 498.300, 398.947 495.938, 398.966 495.250 C 398.985 494.563, 399.414 494, 399.921 494 C 400.427 494, 401.138 492.650, 401.500 491 C 401.862 489.350, 402.573 488, 403.079 488 C 403.586 488, 404 487.325, 404 486.500 C 404 485.675, 404.363 485, 404.808 485 C 405.252 485, 406.360 483.313, 407.270 481.250 C 408.180 479.188, 409.612 476.600, 410.453 475.500 C 411.293 474.400, 415.199 469, 419.132 463.500 C 429.478 449.033, 445.951 429.934, 459.342 416.878 C 460.905 415.354, 461.884 413.622, 461.518 413.029 C 461.151 412.436, 461.222 412.015, 461.676 412.094 C 464.020 412.501, 465.161 411.863, 464.618 410.448 C 464.291 409.594, 464.443 409.156, 464.956 409.473 C 466.231 410.261, 482.117 393.998, 481.324 392.716 C 480.941 392.095, 481.190 391.999, 481.957 392.474 C 482.654 392.904, 483.511 392.810, 483.862 392.266 C 484.213 391.721, 487.558 387.884, 491.295 383.739 C 495.032 379.594, 498.997 375.145, 500.105 373.851 C 501.214 372.558, 503.007 370.470, 504.089 369.210 C 507.722 364.981, 520.663 347.543, 523.381 343.213 C 524.861 340.855, 525.759 338.380, 525.376 337.713 C 524.993 337.046, 525.054 336.840, 525.512 337.256 C 526.408 338.069, 531.989 330.319, 531.996 328.250 C 531.998 327.563, 532.450 327, 533 327 C 533.550 327, 534.015 326.438, 534.034 325.750 C 534.053 325.063, 534.937 322.700, 536 320.500 C 537.063 318.300, 537.947 315.750, 537.966 314.833 C 537.985 313.917, 538.337 313.017, 538.750 312.833 C 539.836 312.351, 543 302.659, 543 299.816 C 543 298.487, 543.563 296.838, 544.250 296.150 C 545.967 294.433, 546.028 252.379, 544.318 248.903 C 543.668 247.581, 542.901 245.150, 542.613 243.500 C 541.652 237.992, 539.553 231, 538.861 231 C 538.484 231, 537.872 229.200, 537.500 227 C 537.128 224.800, 536.464 223, 536.023 223 C 535.583 223, 534.927 221.425, 534.566 219.500 C 533.901 215.953, 532.615 214.970, 531.623 217.250 C 531.324 217.938, 531.336 217.259, 531.650 215.743 C 532 214.051, 531.613 212.058, 530.649 210.588 C 529.785 209.269, 527.666 205.560, 525.939 202.345 C 523.165 197.181, 512.388 180.325, 511.013 179 C 510.728 178.725, 509.247 176.700, 507.722 174.500 C 506.197 172.300, 503.881 169.200, 502.576 167.611 L 500.204 164.723 501.235 169.111" stroke="none" fill="#d32b13" fill-rule="evenodd"/><path d="M 399 29.831 C 399 30.804, 399.376 32.028, 399.835 32.550 C 401.319 34.240, 405.287 46.783, 407.094 55.500 C 409.557 67.377, 410.160 75.523, 409.760 91.500 C 409.494 102.153, 409.650 107.007, 410.180 104.500 C 411.686 97.368, 411.381 72.170, 409.671 62.500 C 408.273 54.593, 403.662 37.735, 401.533 32.750 C 396.865 21.816, 426.938 61.903, 436.626 79.527 C 438.612 83.140, 440.469 85.864, 440.754 85.580 C 441.038 85.295, 440.605 84.036, 439.791 82.781 C 435.825 76.667, 431.976 68.848, 432.508 67.987 C 432.836 67.457, 432.518 67.222, 431.802 67.466 C 431.046 67.724, 429.033 65.582, 427 62.355 C 423.599 56.957, 418.050 49.516, 407.239 35.853 C 401.640 28.778, 399 26.848, 399 29.831 M 444.664 94.750 C 446.617 99.013, 449.720 107, 451.558 112.500 C 453.397 118, 454.924 121.714, 454.951 120.754 C 455.005 118.828, 451.664 108.369, 449.345 103.208 C 448.532 101.397, 447.296 98.472, 446.600 96.708 C 443.762 89.521, 442.526 87, 441.838 87 C 441.440 87, 442.712 90.487, 444.664 94.750 M 407.684 110.382 C 407.308 111.362, 407 113.020, 407 114.067 C 407 117.183, 401.191 133.717, 396.872 142.893 C 389.384 158.801, 367.951 190.457, 365.301 189.524 C 364.641 189.292, 364.318 189.666, 364.583 190.355 C 365.181 191.913, 344.172 215.224, 342.885 214.429 C 342.371 214.111, 342.015 214.222, 342.094 214.676 C 342.493 216.972, 341.859 218.160, 340.512 217.643 C 339.694 217.329, 339.072 217.393, 339.130 217.786 C 339.455 219.961, 338.836 221.151, 337.624 220.686 C 336.773 220.359, 336.297 220.795, 336.374 221.829 C 336.451 222.843, 335.817 223.446, 334.761 223.363 C 333.804 223.288, 333.290 223.659, 333.617 224.189 C 334.405 225.464, 330.262 229.280, 328.962 228.477 C 328.406 228.133, 328.015 228.222, 328.094 228.676 C 328.480 230.899, 327.864 232.162, 326.624 231.686 C 325.773 231.359, 325.297 231.795, 325.374 232.829 C 325.451 233.843, 324.817 234.446, 323.761 234.363 C 322.804 234.288, 322.284 234.651, 322.605 235.170 C 323.392 236.444, 316.255 243.276, 314.968 242.480 C 314.409 242.134, 314.015 242.222, 314.094 242.676 C 314.501 245.020, 313.863 246.161, 312.448 245.618 C 311.487 245.250, 311.150 245.434, 311.563 246.102 C 312.402 247.459, 305.028 255.135, 303.683 254.304 C 303.100 253.944, 303.009 254.205, 303.462 254.939 C 303.947 255.724, 302.779 257.728, 300.312 260.343 C 286.377 275.115, 269.607 298.751, 262.186 314.079 C 257.134 324.511, 258.525 323.481, 264.318 312.500 C 277.404 287.691, 292.044 269.207, 326.494 234 C 366.788 192.819, 382.925 172.676, 395.386 148.003 C 401.710 135.481, 404.237 129.133, 407.044 118.713 C 408.943 111.662, 409.381 105.958, 407.684 110.382 M 455.516 126 C 455.823 127.925, 456.493 131.525, 457.006 134 C 457.840 138.025, 457.881 137.817, 457.394 132.027 C 457.095 128.468, 456.425 124.868, 455.905 124.027 C 455.249 122.969, 455.130 123.574, 455.516 126 M 458.249 151 C 458.242 162.214, 458.338 162.902, 459.176 157.690 C 459.753 154.104, 459.755 149.317, 459.183 145.190 C 458.305 138.854, 458.255 139.162, 458.249 151 M 490 150.277 C 490 150.980, 490.589 152.443, 491.308 153.527 C 492.385 155.153, 494.812 162.110, 496.666 168.893 C 496.876 169.659, 497.308 170.026, 497.626 169.707 C 498.291 169.042, 494.198 155.983, 492.876 154.550 C 491.746 153.324, 491.752 152, 492.889 152 C 493.999 152, 514.045 178.061, 520.196 187.500 C 527.315 198.425, 534.435 211.663, 538.483 221.500 C 543.883 234.623, 544.106 235.056, 543.375 231.033 C 543.029 229.126, 542.403 226.876, 541.983 226.033 C 533.874 209.734, 529.036 198.978, 529.318 197.878 C 529.513 197.120, 529.483 196.838, 529.253 197.250 C 528.546 198.514, 527 198.083, 527 196.622 C 527 195.865, 526.294 194.659, 525.430 193.942 C 524.567 193.226, 524.075 191.820, 524.337 190.818 C 524.599 189.817, 524.422 189.239, 523.945 189.534 C 522.507 190.422, 517.866 182.547, 518.565 180.407 C 519.003 179.069, 518.910 178.887, 518.256 179.797 C 516.926 181.648, 514.760 178.883, 515.577 176.377 C 516.031 174.984, 515.938 174.850, 515.219 175.857 C 514.033 177.518, 512.499 175.619, 513.595 173.845 C 514 173.191, 513.873 172.960, 513.303 173.313 C 511.897 174.182, 501.662 161.356, 502.578 159.874 C 503.009 159.176, 502.881 158.955, 502.267 159.335 C 501.693 159.690, 499.501 157.847, 497.396 155.240 C 492.306 148.937, 490 147.390, 490 150.277 M 456.573 169.250 C 456.196 172.137, 455.660 175.625, 455.381 177 C 454.995 178.905, 455.109 179.136, 455.862 177.973 C 456.920 176.337, 458.594 164, 457.758 164 C 457.483 164, 456.950 166.363, 456.573 169.250 M 498.661 176 C 498.974 179.025, 499.725 182.400, 500.329 183.500 C 501.828 186.227, 501.862 225.782, 500.368 228.500 C 499.763 229.600, 498.995 232.975, 498.662 236 C 497.716 244.594, 499.579 238.782, 501.551 226.988 C 503.817 213.432, 503.100 189.186, 500.102 178 C 498.101 170.535, 498.094 170.526, 498.661 176 M 452.140 187.214 C 450.852 191.181, 448.796 196.505, 447.571 199.044 C 444.763 204.865, 443.942 207, 444.512 207 C 445.075 207, 450.496 195.364, 451.499 192 C 451.909 190.625, 452.599 189.050, 453.033 188.500 C 453.879 187.426, 455.468 180, 454.852 180 C 454.648 180, 453.427 183.246, 452.140 187.214 M 438.430 216.235 C 426.939 235.725, 410.292 255.552, 376.029 290.555 C 335.330 332.131, 316.890 357.370, 305.318 387.332 C 303.437 392.205, 302.093 396.711, 302.332 397.346 C 302.815 398.627, 302.936 398.347, 305.500 390 C 308.311 380.848, 317.512 362.980, 325.631 350.904 C 329.848 344.632, 333.581 339.275, 333.925 339 C 334.270 338.725, 336.098 336.475, 337.987 334 C 343.700 326.518, 351.988 316.994, 361.048 307.500 C 385.005 282.395, 398.368 269.109, 399.165 269.602 C 399.651 269.903, 399.985 269.778, 399.906 269.324 C 399.499 266.980, 400.137 265.839, 401.552 266.382 C 402.554 266.766, 402.854 266.573, 402.399 265.837 C 402.012 265.210, 402.327 264.202, 403.101 263.598 C 404.709 262.343, 416.060 249.180, 418.331 245.938 C 419.251 244.624, 420.322 244.081, 421.075 244.546 C 421.850 245.025, 422.054 244.897, 421.623 244.199 C 421.246 243.589, 424.019 238.907, 427.785 233.795 C 435.690 223.064, 444.475 209.141, 443.779 208.446 C 443.517 208.184, 441.110 211.689, 438.430 216.235 M 544.340 236.625 C 551.760 261.719, 551.676 284.989, 544.084 307.580 C 541.435 315.465, 541.303 316.446, 542.709 317.852 C 544.115 319.258, 544.196 319.192, 543.551 317.160 C 543.094 315.722, 543.751 312.317, 545.375 307.706 C 549.310 296.530, 550.431 288.748, 550.446 272.500 C 550.456 261.813, 549.952 255.200, 548.695 249.500 C 547.725 245.100, 546.669 240.257, 546.350 238.738 C 546.031 237.219, 545.323 235.700, 544.778 235.363 C 544.194 235.002, 544.014 235.522, 544.340 236.625 M 496.691 242.691 C 496.411 243.144, 495.865 245.204, 495.477 247.269 C 495.090 249.333, 494.374 251.269, 493.887 251.570 C 493.399 251.871, 493 252.780, 493 253.588 C 493 256.428, 481.837 277.975, 475.336 287.686 C 466.877 300.320, 465.914 301.417, 464.729 299.774 C 464.095 298.894, 464 299.080, 464.423 300.377 C 465.130 302.546, 463.269 305.284, 461.732 304.334 C 461.114 303.953, 460.992 304.178, 461.431 304.888 C 462.055 305.898, 457.070 312.731, 451.283 318.799 C 450.602 319.514, 449.347 321.089, 448.494 322.299 C 447.173 324.175, 446.800 324.278, 445.969 323 C 445.187 321.797, 445.044 321.923, 445.247 323.636 C 445.435 325.223, 439.895 331.573, 423.655 348.386 C 410.674 361.824, 401.341 370.732, 400.655 370.340 C 400.020 369.977, 399.834 370.048, 400.241 370.498 C 401.256 371.617, 399.028 374.135, 397.732 373.334 C 397.158 372.980, 396.987 373.170, 397.351 373.758 C 398.202 375.135, 391.047 383.147, 389.706 382.318 C 389.102 381.945, 389.001 382.193, 389.458 382.932 C 389.925 383.688, 389.096 385.408, 387.331 387.336 C 382.819 392.270, 380.642 395, 381.219 395 C 381.510 395, 385.291 390.837, 389.622 385.750 C 393.952 380.663, 407.847 365.921, 420.498 352.990 C 459.783 312.838, 476.057 292.153, 488.544 266.500 C 493.839 255.623, 498.521 243.188, 497.650 242.317 C 497.403 242.069, 496.971 242.238, 496.691 242.691 M 537.650 323.699 C 525.773 348.166, 508.851 369.877, 473.506 406 C 441.770 438.434, 428.431 453.936, 414.560 474.500 C 408.284 483.805, 397.698 505.544, 394.595 515.500 C 391.652 524.942, 390.291 532.293, 391.910 530 C 392.493 529.175, 392.976 527.550, 392.985 526.389 C 393.003 523.854, 397.029 510.923, 399.510 505.432 C 407.268 488.259, 409.214 484.722, 410.154 486.085 C 410.902 487.169, 411.015 487.032, 410.637 485.500 C 410.039 483.077, 419.083 468.364, 420.919 468.775 C 421.595 468.926, 421.864 468.589, 421.517 468.027 C 420.658 466.637, 433.192 449.954, 434.699 450.480 C 435.359 450.710, 435.682 450.334, 435.417 449.645 C 434.819 448.087, 455.828 424.776, 457.115 425.571 C 457.629 425.889, 457.985 425.778, 457.906 425.324 C 457.507 423.028, 458.141 421.840, 459.488 422.357 C 460.306 422.671, 460.928 422.607, 460.870 422.214 C 460.545 420.039, 461.164 418.849, 462.376 419.314 C 463.227 419.641, 463.703 419.205, 463.626 418.171 C 463.549 417.157, 464.183 416.554, 465.239 416.637 C 466.196 416.712, 466.710 416.341, 466.383 415.811 C 465.595 414.536, 469.738 410.720, 471.038 411.523 C 471.594 411.867, 471.985 411.778, 471.906 411.324 C 471.520 409.101, 472.136 407.838, 473.376 408.314 C 474.227 408.641, 474.703 408.205, 474.626 407.171 C 474.553 406.206, 475.183 405.549, 476.117 405.617 C 477.029 405.682, 477.682 405.029, 477.617 404.117 C 477.535 402.984, 478.248 402.556, 480 402.687 C 481.375 402.789, 481.938 402.639, 481.250 402.353 C 479.465 401.611, 479.696 399.669, 481.488 400.357 C 482.306 400.671, 482.928 400.607, 482.870 400.214 C 482.535 397.969, 483.168 396.851, 484.488 397.357 C 485.306 397.671, 485.928 397.607, 485.870 397.214 C 485.528 394.921, 486.164 393.849, 487.552 394.382 C 488.513 394.750, 488.850 394.566, 488.437 393.898 C 487.598 392.541, 494.972 384.865, 496.317 385.696 C 496.899 386.056, 496.991 385.795, 496.540 385.064 C 495.438 383.282, 503.074 375.562, 504.261 377.258 C 504.818 378.053, 504.919 377.741, 504.543 376.391 C 504.168 375.048, 504.576 373.777, 505.665 372.891 C 507.175 371.662, 507.296 371.710, 506.699 373.302 C 506.283 374.410, 506.414 374.862, 507.038 374.477 C 507.596 374.131, 507.988 373.321, 507.908 372.675 C 507.575 369.978, 508.082 368.818, 509.376 369.314 C 510.132 369.604, 510.695 369.315, 510.626 368.671 C 510.557 368.027, 514.530 361.998, 519.456 355.274 C 525.699 346.751, 528.681 343.419, 529.300 344.274 C 529.893 345.091, 529.991 344.892, 529.597 343.674 C 528.912 341.564, 533.714 332.705, 535.084 333.552 C 535.575 333.855, 535.743 333.495, 535.458 332.750 C 535.172 332.006, 536.327 328.795, 538.024 325.614 C 539.722 322.433, 540.965 319.396, 540.788 318.865 C 540.611 318.334, 539.199 320.509, 537.650 323.699 M 256.976 325.563 C 254.611 331.784, 251.875 340.959, 250.854 346.090 C 249.190 354.461, 248.672 376.664, 249.983 383.496 C 252.132 394.702, 254.367 403.497, 255.321 404.500 C 255.928 405.138, 256.029 404.594, 255.600 403 C 248.396 376.183, 248.484 354.537, 255.886 332.508 C 257.540 327.586, 258.705 323.371, 258.474 323.141 C 258.244 322.911, 257.570 324.001, 256.976 325.563 M 378.472 395.954 C 378.788 396.466, 376.035 400.977, 372.354 405.977 C 367.477 412.602, 365.410 414.721, 364.736 413.785 C 364.086 412.882, 363.989 413.047, 364.410 414.343 C 364.789 415.509, 363.639 418.404, 361.274 422.235 C 357.799 427.866, 357.487 428.119, 356.788 425.893 C 356.156 423.880, 356.100 423.976, 356.435 426.500 C 356.683 428.366, 355.942 431.202, 354.477 434 C 353.180 436.475, 351.154 440.975, 349.974 444 C 348.794 447.025, 347.448 450.232, 346.983 451.127 C 346.517 452.022, 345.869 454.497, 345.542 456.627 C 345.145 459.215, 345.907 457.845, 347.837 452.500 C 353.773 436.066, 361.252 422.523, 373.418 406.176 C 379.056 398.599, 380.507 396.025, 379.383 395.593 C 378.565 395.280, 378.155 395.442, 378.472 395.954 M 300.103 403.956 C 294.700 429.148, 296.601 457.502, 305.284 481.250 C 306.641 484.962, 307.435 488, 307.048 488 C 306.024 488, 288.316 465.008, 281.247 454.500 C 272.764 441.889, 264.843 427.184, 260.392 415.784 C 258.306 410.440, 256.404 406.263, 256.165 406.501 C 255.381 407.286, 260.252 419.310, 265.672 429.970 C 268.906 436.330, 270.804 441.237, 270.507 442.470 C 270.238 443.586, 270.277 443.938, 270.593 443.250 C 271.530 441.210, 272.433 441.786, 274.511 445.750 C 275.592 447.813, 277.726 451.264, 279.252 453.419 C 281.068 455.983, 281.827 458.058, 281.448 459.419 C 281.039 460.890, 281.142 461.107, 281.801 460.158 C 282.523 459.116, 283.225 459.507, 284.929 461.901 C 286.138 463.598, 286.850 465.434, 286.511 465.982 C 286.168 466.537, 286.526 466.736, 287.319 466.431 C 288.102 466.131, 288.995 466.545, 289.305 467.353 C 289.989 469.136, 305.057 487.978, 307.254 489.799 C 309.574 491.720, 310.411 489.549, 308.623 486.252 C 306.303 481.975, 302.750 470.529, 300.939 461.500 C 297.140 442.555, 297.143 424.387, 300.949 405.652 C 301.603 402.436, 301.926 399.592, 301.666 399.333 C 301.407 399.074, 300.704 401.154, 300.103 403.956 M 343.580 462.107 C 343.322 462.873, 342.385 469.125, 341.497 476 C 340.298 485.279, 340.123 490.175, 340.817 495 C 341.738 501.397, 341.755 501.319, 341.878 490 C 341.947 483.675, 342.670 474.706, 343.487 470.069 C 344.303 465.431, 344.763 461.429, 344.509 461.175 C 344.255 460.921, 343.837 461.341, 343.580 462.107 M 342.606 507.973 C 342.905 511.532, 343.575 515.132, 344.095 515.973 C 345.100 517.595, 344.761 514.532, 342.994 506 C 342.160 501.975, 342.119 502.183, 342.606 507.973 M 345.585 522 C 345.927 524.475, 346.610 526.928, 347.103 527.450 C 347.596 527.972, 348 529.029, 348 529.799 C 348 530.568, 348.728 532.841, 349.619 534.849 C 350.509 536.857, 351.895 539.994, 352.699 541.820 C 353.503 543.646, 353.904 545.807, 353.592 546.622 C 353.279 547.437, 353.445 547.843, 353.961 547.524 C 355.383 546.645, 357.195 550.775, 356.490 553.288 C 356.045 554.874, 356.140 555.108, 356.827 554.115 C 357.601 552.996, 358.008 553.147, 358.948 554.903 C 359.587 556.098, 359.865 558.071, 359.565 559.288 C 359.264 560.504, 359.277 560.938, 359.593 560.250 C 360.274 558.767, 362 558.577, 362 559.985 C 362 560.527, 363.332 563.135, 364.960 565.780 C 366.823 568.808, 367.717 571.366, 367.373 572.683 C 367.072 573.833, 367.310 575.073, 367.901 575.439 C 368.580 575.858, 368.743 575.493, 368.343 574.451 C 367.994 573.542, 368.185 572.504, 368.768 572.144 C 369.430 571.734, 368.338 569.057, 365.852 564.995 C 359.705 554.951, 352.267 539.041, 348.439 527.749 C 345.955 520.422, 345.142 518.783, 345.585 522 M 389.974 533.250 C 389.960 533.938, 389.518 538.928, 388.991 544.340 C 387.847 556.106, 389.159 574.014, 391.971 585 C 393.656 591.587, 393.827 591.891, 393.373 587.500 C 393.088 584.750, 392.325 581.150, 391.678 579.500 C 390.899 577.517, 390.500 568.956, 390.500 554.250 C 390.500 542.012, 390.387 532, 390.250 532 C 390.113 532, 389.988 532.563, 389.974 533.250 M 370 573.542 C 370 574.083, 374.022 579.783, 379.287 586.704 C 380.819 588.719, 381.855 590.937, 381.587 591.633 C 381.269 592.462, 381.660 592.684, 382.725 592.275 C 383.936 591.811, 384.186 592.074, 383.710 593.314 C 383.359 594.228, 383.433 594.869, 383.875 594.738 C 385.264 594.326, 390.185 600.892, 389.417 602.134 C 388.985 602.833, 389.121 603.043, 389.754 602.652 C 391.183 601.769, 396.250 607.907, 395.565 609.692 C 395.267 610.469, 395.458 610.835, 395.991 610.506 C 396.523 610.177, 397.868 610.394, 398.979 610.989 C 400.666 611.891, 401 611.767, 401 610.235 C 401 609.226, 400.613 607.972, 400.140 607.450 C 399.419 606.654, 396.761 599.269, 395.337 594.107 C 395.126 593.341, 394.712 592.955, 394.417 593.250 C 394.122 593.545, 394.992 597.097, 396.351 601.143 C 398.463 607.431, 398.976 610.499, 397.651 608.917 C 392.743 603.052, 380.054 586.458, 376.059 580.679 C 371.087 573.487, 370 572.207, 370 573.542" stroke="none" fill="#fbfbfb" fill-rule="evenodd"/></svg>