<?xml version="1.0" standalone="no"?>
<!DOCTYPE svg PUBLIC "-//W3C//DTD SVG 20010904//EN"
 "http://www.w3.org/TR/2001/REC-SVG-20010904/DTD/svg10.dtd">
<svg version="1.0" xmlns="http://www.w3.org/2000/svg"
 width="800.000000pt" height="800.000000pt" viewBox="0 0 800.000000 800.000000"
 preserveAspectRatio="xMidYMid meet">

<g transform="translate(0.000000,800.000000) scale(0.100000,-0.100000)"
fill="#000000" stroke="none">
<path d="M4240 7116 c0 -25 5 -48 10 -51 6 -4 10 -62 10 -140 0 -78 -4 -136
-10 -140 -12 -8 -13 -82 -1 -89 18 -11 27 238 15 387 -7 83 -24 105 -24 33z"/>
<path d="M4317 7140 c3 -11 9 -17 15 -14 5 3 4 12 -3 20 -16 19 -18 18 -12 -6z"/>
<path d="M4340 7112 c0 -6 6 -17 14 -24 7 -8 17 -24 20 -36 4 -12 12 -22 17
-22 5 0 9 -6 9 -14 0 -8 6 -21 13 -28 8 -7 16 -20 20 -28 4 -12 6 -12 6 2 1 9
-5 23 -11 30 -7 7 -22 30 -32 51 -23 44 -56 85 -56 69z"/>
<path d="M4456 6920 c3 -14 10 -27 14 -30 4 -3 10 -12 13 -20 5 -13 6 -13 6 0
1 8 -8 29 -20 45 -19 28 -20 28 -13 5z"/>
<path d="M4490 6835 c0 -8 4 -15 9 -15 5 0 12 -18 16 -40 4 -22 11 -40 16 -40
5 0 9 -12 9 -27 0 -20 3 -24 9 -14 8 12 -6 70 -20 81 -4 3 -10 20 -14 38 -7
32 -25 45 -25 17z"/>
<path d="M4231 6658 c-1 -21 -5 -38 -11 -38 -5 0 -10 -9 -10 -21 0 -11 -4 -28
-9 -38 -6 -10 -6 -23 0 -32 6 -10 9 -7 9 13 0 15 4 29 9 33 12 7 25 89 18 107
-3 7 -6 -4 -6 -24z"/>
<path d="M4565 6655 c3 -22 5 -51 5 -64 0 -19 3 -22 12 -13 9 9 8 22 -2 54
-19 64 -21 67 -15 23z"/>
<path d="M4595 6370 c0 -150 2 -190 9 -150 10 70 10 217 -1 295 -6 45 -8 7 -8
-145z"/>
<path d="M4180 6504 c0 -11 -5 -25 -11 -31 -7 -7 -7 -13 -1 -17 11 -7 28 51
18 61 -3 4 -6 -3 -6 -13z"/>
<path d="M4125 6377 c-39 -80 -41 -85 -22 -66 9 9 19 28 23 43 3 14 10 26 14
26 8 0 24 50 18 55 -2 2 -17 -24 -33 -58z"/>
<path d="M4960 6294 c0 -6 7 -33 14 -60 44 -148 57 -362 32 -514 -60 -358
-207 -588 -722 -1125 -95 -99 -209 -223 -253 -275 -180 -211 -297 -425 -346
-635 -20 -87 -20 -287 0 -385 48 -229 190 -500 360 -685 32 -35 36 -37 30 -15
-21 78 -35 198 -36 295 -1 274 68 484 247 755 103 156 165 228 499 575 252
263 324 347 407 475 142 218 200 399 201 630 1 156 -16 252 -72 405 -21 55
-98 208 -139 275 -68 111 -221 307 -222 284z"/>
<path d="M4045 6243 c-38 -61 -43 -75 -17 -43 41 48 66 90 55 90 -5 0 -22 -21
-38 -47z"/>
<path d="M3950 6107 c-73 -100 -223 -273 -348 -399 -63 -65 -112 -118 -107
-118 15 0 336 338 359 378 5 9 19 26 30 38 12 12 32 37 46 55 14 18 31 38 38
46 7 7 10 13 6 13 -4 0 3 8 14 19 22 19 28 31 15 31 -5 0 -28 -29 -53 -63z"/>
<path d="M4570 6130 c0 -18 4 -29 10 -25 6 3 10 15 10 25 0 10 -4 22 -10 25
-6 4 -10 -7 -10 -25z"/>
<path d="M4562 6070 c0 -14 2 -19 5 -12 2 6 2 18 0 25 -3 6 -5 1 -5 -13z"/>
<path d="M4542 6020 c0 -14 2 -19 5 -12 2 6 2 18 0 25 -3 6 -5 1 -5 -13z"/>
<path d="M4515 5964 c-3 -20 -4 -39 -1 -42 3 -3 6 4 6 16 0 12 5 22 10 22 12
0 13 27 1 34 -5 3 -12 -10 -16 -30z"/>
<path d="M4486 5895 c-4 -15 -5 -30 -1 -33 3 -3 5 2 5 11 0 8 6 17 13 20 9 3
9 8 1 16 -9 10 -13 6 -18 -14z"/>
<path d="M4460 5846 c0 -9 5 -16 10 -16 6 0 10 4 10 9 0 6 -4 13 -10 16 -5 3
-10 -1 -10 -9z"/>
<path d="M4445 5806 c-14 -17 -34 -48 -42 -66 -4 -8 -11 -19 -15 -25 -5 -5
-17 -21 -28 -34 -19 -22 -26 -41 -16 -41 7 0 66 90 66 101 0 5 3 9 8 9 4 0 15
14 25 31 18 33 19 46 2 25z"/>
<path d="M4291 5588 c-11 -13 -29 -34 -40 -48 -53 -63 -140 -157 -314 -333
-104 -106 -193 -201 -199 -212 -5 -11 11 3 37 30 26 28 115 120 198 205 157
160 254 264 296 315 13 17 31 38 39 48 8 9 12 17 8 17 -3 0 -15 -10 -25 -22z"/>
<path d="M3425 5519 c-11 -16 -1 -19 13 -3 7 8 8 14 3 14 -5 0 -13 -5 -16 -11z"/>
<path d="M3336 5428 c-36 -40 -63 -74 -61 -76 4 -4 116 113 128 134 17 29 -4
12 -67 -58z"/>
<path d="M3234 5306 c-54 -63 -73 -90 -68 -95 2 -3 11 5 19 17 9 11 22 28 31
37 8 8 13 15 9 15 -3 0 6 11 20 25 24 24 30 35 21 35 -2 0 -17 -15 -32 -34z"/>
<path d="M3133 5173 c-10 -16 -22 -31 -27 -35 -6 -4 -7 -11 -2 -15 5 -4 11 -3
13 4 2 6 13 21 24 34 18 21 25 39 14 39 -2 0 -12 -12 -22 -27z"/>
<path d="M3081 5093 c-7 -8 -11 -16 -8 -19 2 -2 10 2 17 11 17 20 9 27 -9 8z"/>
<path d="M3055 5050 c-3 -5 -1 -10 4 -10 6 0 11 5 11 10 0 6 -2 10 -4 10 -3 0
-8 -4 -11 -10z"/>
<path d="M3032 5010 c-14 -23 -15 -30 -3 -30 8 0 24 41 18 47 -2 1 -8 -7 -15
-17z"/>
<path d="M3710 4972 c0 -7 -13 -24 -30 -39 -16 -14 -30 -31 -30 -36 0 -13 48
31 62 56 5 10 7 21 4 25 -3 3 -6 0 -6 -6z"/>
<path d="M2996 4936 c-9 -19 -16 -38 -16 -43 0 -6 -7 -24 -16 -41 -8 -18 -13
-42 -11 -54 4 -20 4 -19 6 5 0 15 5 27 10 27 5 0 12 17 16 37 4 21 10 40 14
43 9 5 24 60 17 60 -2 0 -11 -15 -20 -34z"/>
<path d="M3612 4853 c-12 -15 -22 -32 -22 -37 0 -5 9 2 20 15 11 13 24 30 30
37 6 6 7 12 2 12 -4 0 -18 -12 -30 -27z"/>
<path d="M3570 4802 c0 -6 -7 -18 -16 -27 -9 -9 -14 -18 -11 -21 3 -3 13 6 23
20 9 15 14 29 10 33 -3 3 -6 1 -6 -5z"/>
<path d="M2931 4747 c-1 -15 -6 -35 -12 -46 -8 -12 -9 -31 -4 -57 8 -37 9 -36
17 36 4 41 6 80 4 85 -3 6 -5 -2 -5 -18z"/>
<path d="M3506 4708 c-25 -31 -35 -55 -17 -44 9 6 53 76 47 76 -2 0 -15 -14
-30 -32z"/>
<path d="M3456 4634 c-9 -24 -2 -26 12 -4 7 11 8 20 3 20 -5 0 -12 -7 -15 -16z"/>
<path d="M2903 4525 c0 -44 2 -61 4 -37 2 23 2 59 0 80 -2 20 -4 1 -4 -43z"/>
<path d="M3423 4585 c-15 -16 -16 -25 -5 -25 4 0 13 9 20 20 14 23 3 26 -15 5z"/>
<path d="M3380 4510 c0 -5 5 -10 10 -10 6 0 10 5 10 10 0 6 -4 10 -10 10 -5 0
-10 -4 -10 -10z"/>
<path d="M3346 4438 c-10 -39 -7 -44 9 -14 17 33 18 36 6 36 -5 0 -11 -10 -15
-22z"/>
<path d="M2914 4416 c-3 -15 -3 -39 0 -54 4 -15 11 -43 16 -62 5 -23 6 -7 3
50 -3 47 -7 87 -9 89 -2 2 -6 -9 -10 -23z"/>
<path d="M3316 4355 c-4 -20 -5 -40 -2 -43 3 -3 6 4 6 14 0 11 5 25 12 32 9 9
9 15 1 23 -7 7 -12 0 -17 -26z"/>
<path d="M3290 4281 c0 -16 -4 -31 -10 -33 -5 -1 -11 -32 -13 -68 -3 -36 -2
-49 0 -30 2 19 8 39 13 45 11 13 25 115 16 115 -3 0 -6 -13 -6 -29z"/>
<path d="M2956 4220 c5 -47 10 -57 21 -47 3 4 1 17 -5 30 -6 12 -13 31 -16 42
-3 11 -3 0 0 -25z"/>
<path d="M2981 4145 c0 -11 9 -38 20 -60 l20 -40 -7 35 c-4 19 -10 37 -14 40
-4 3 -10 14 -13 25 l-5 20 -1 -20z"/>
<path d="M3240 3930 c0 -118 3 -179 10 -175 6 4 10 73 10 175 0 102 -4 171
-10 175 -7 4 -10 -57 -10 -175z"/>
<path d="M3025 4041 c-3 -5 -1 -12 5 -16 5 -3 10 1 10 9 0 18 -6 21 -15 7z"/>
<path d="M3058 3985 c-7 -8 40 -98 54 -103 4 -2 8 -9 8 -16 0 -7 9 -23 20 -36
11 -13 20 -18 20 -12 0 6 -6 17 -14 24 -7 8 -17 24 -20 36 -4 12 -12 22 -17
22 -5 0 -9 7 -9 15 0 8 -4 15 -10 15 -5 0 -9 3 -8 8 2 13 -18 53 -24 47z"/>
<path d="M3160 3796 c0 -2 7 -9 15 -16 13 -11 14 -10 9 4 -5 14 -24 23 -24 12z"/>
<path d="M3200 3753 c0 -5 11 -23 25 -39 32 -37 32 -28 0 16 -14 19 -25 29
-25 23z"/>
<path d="M3262 3709 c-1 -31 3 -51 13 -59 16 -13 21 0 6 16 -5 5 -11 27 -14
49 l-4 40 -1 -46z"/>
<path d="M520 1920 l0 -80 145 0 145 0 2 -307 3 -308 162 -3 163 -2 2 307 3
308 153 3 152 3 0 79 0 80 -465 0 -465 0 0 -80z"/>
<path d="M1719 1958 c-12 -24 -41 -80 -65 -125 -92 -174 -133 -252 -194 -368
-35 -66 -76 -144 -91 -173 -16 -29 -29 -57 -29 -63 0 -5 44 -9 98 -9 l98 0 36
68 36 67 242 0 242 0 36 -67 36 -68 173 0 c106 0 173 4 173 10 0 5 -15 38 -34
72 -46 88 -179 339 -310 588 l-55 105 -185 3 -185 2 -22 -42z m212 -296 c39
-73 67 -137 64 -142 -8 -13 -282 -13 -290 0 -3 5 18 56 48 112 30 57 62 118
71 136 10 18 22 32 27 30 6 -2 42 -63 80 -136z"/>
<path d="M2420 1920 l0 -79 143 -3 142 -3 5 -305 5 -305 160 0 160 0 5 305 5
305 148 3 147 3 0 79 0 80 -460 0 -460 0 0 -80z"/>
<path d="M3450 1995 c0 0 -1 -172 -3 -383 l-2 -382 103 0 102 0 0 214 0 214
28 -2 c16 -1 36 -9 46 -19 10 -9 21 -17 25 -17 5 0 19 -10 33 -23 13 -12 37
-33 53 -45 15 -12 23 -22 17 -22 -6 0 -24 13 -40 28 -26 26 -62 47 -62 38 0
-7 143 -118 159 -122 10 -4 9 -1 -4 7 -28 18 -48 39 -37 39 5 0 20 -9 33 -20
26 -21 30 -25 73 -58 16 -12 24 -22 19 -22 -6 0 -20 9 -33 20 -13 11 -27 20
-33 20 -5 0 5 -13 23 -29 19 -16 39 -27 46 -24 18 7 50 -12 35 -21 -6 -4 -11
-2 -11 3 0 6 -5 11 -12 11 -6 0 -1 -11 12 -25 12 -13 27 -22 33 -18 5 3 3 9
-4 14 -10 6 -10 9 -2 9 7 0 16 -6 20 -13 4 -8 16 -17 27 -20 10 -4 16 -13 13
-21 -3 -9 14 -30 43 -55 l49 -41 125 0 125 0 1 370 c0 246 -3 370 -10 370 -7
0 -10 -123 -10 -362 l0 -363 -115 2 c-63 1 -121 5 -129 10 -8 4 41 7 110 5
l124 -4 0 356 0 356 -75 0 -75 0 -2 -182 -2 -183 -6 185 -5 185 100 5 100 5
-108 5 -107 5 0 -197 c0 -109 -4 -198 -9 -198 -5 0 -14 7 -21 15 -7 8 -18 15
-24 15 -6 0 -4 -5 4 -10 13 -9 13 -10 0 -10 -8 0 -22 5 -30 10 -10 6 -11 10
-2 10 6 0 12 5 12 11 0 6 -7 8 -16 5 -10 -4 -31 5 -52 22 -21 16 -44 32 -52
35 -13 5 -13 6 1 6 14 1 28 -8 77 -50 7 -6 16 -8 20 -4 4 4 1 10 -6 12 -7 3
-34 22 -60 42 -53 42 -72 54 -72 47 0 -2 7 -12 16 -20 8 -9 10 -16 4 -16 -6 0
-13 7 -16 15 -4 8 -12 15 -19 15 -10 0 -24 9 -72 50 -6 5 -26 18 -45 30 -18
11 -26 20 -17 20 9 0 26 -9 39 -20 13 -11 28 -20 33 -20 5 0 -11 16 -36 35
-25 19 -52 35 -59 35 -9 0 -9 -3 2 -10 8 -5 11 -10 5 -10 -20 0 -38 17 -26 25
8 4 -8 22 -43 48 l-56 42 -125 -3 -125 -3 0 -355 0 -354 75 0 75 0 3 198 2
197 3 -205 2 -205 -85 0 -85 0 0 367 0 367 123 3 122 3 -128 5 c-70 3 -127 5
-127 5z m284 -41 c9 -3 13 -10 10 -15 -3 -5 1 -9 9 -9 8 0 24 -9 37 -20 13
-11 18 -20 13 -20 -6 0 -16 7 -23 15 -7 8 -18 15 -26 15 -7 0 -17 6 -21 14 -4
7 -15 16 -23 19 -8 3 -10 6 -3 6 6 1 18 -2 27 -5z m-51 -281 c-7 -2 -19 -2
-25 0 -7 3 -2 5 12 5 14 0 19 -2 13 -5z m547 -83 c8 -5 11 -10 5 -10 -5 0 -17
5 -25 10 -8 5 -10 10 -5 10 6 0 17 -5 25 -10z m-60 -300 c13 -9 13 -10 0 -10
-8 0 -22 5 -30 10 -13 9 -13 10 0 10 8 0 22 -5 30 -10z"/>
<path d="M4650 1613 l0 -383 445 0 445 0 0 80 0 80 -288 0 c-159 0 -291 2
-293 4 -2 2 -3 36 -1 75 l4 71 224 0 c148 0 223 3 219 10 -4 6 -90 11 -218 12
l-212 3 208 2 207 3 0 40 c0 22 -1 41 -2 42 -2 1 -93 5 -203 8 l-200 6 205 4
205 4 -215 6 -215 5 -5 69 c-8 112 -24 106 283 108 l262 2 -265 6 -265 6 263
2 262 2 0 45 0 45 -410 0 -410 0 0 -355 0 -355 415 0 415 0 0 50 0 50 -272 3
-273 2 280 3 280 2 -1 -60 -2 -60 -431 -3 -431 -2 0 368 0 367 425 0 425 0 0
-67 c0 -85 8 -79 11 10 l2 67 -436 3 -437 2 0 -382z"/>
<path d="M5710 1613 l0 -383 158 0 157 0 -3 144 -3 145 33 6 c18 3 99 5 181 3
l147 -3 -2 60 -2 60 -3 -52 -4 -53 -167 2 -167 2 163 3 162 3 0 45 0 45 -167
3 -168 3 183 2 c110 1 182 6 182 12 0 6 -72 11 -182 12 l-183 3 -3 70 c-2 38
0 80 3 92 l5 23 278 2 277 3 -270 5 -270 6 360 0 c198 -1 322 -3 275 -5 l-85
-5 90 -6 90 -5 0 -313 0 -312 158 0 157 0 0 315 0 315 143 2 142 2 -140 6
-140 6 138 2 137 2 0 45 0 45 -815 0 -815 0 0 -355 0 -355 130 0 129 0 4 128
3 127 2 -135 2 -135 -140 0 -140 0 -2 368 -3 367 830 0 830 0 -3 -61 c-2 -36
1 -66 7 -72 8 -8 11 11 11 68 l0 80 -845 0 -845 0 0 -382z m1220 -353 l130 0
3 293 2 292 3 -300 2 -300 -140 0 -140 0 2 300 3 300 2 -292 3 -293 130 0z
m-923 448 c-2 -24 -4 -5 -4 42 0 47 2 66 4 43 2 -24 2 -62 0 -85z"/>
<path d="M3958 1788 c12 -6 22 -15 22 -20 0 -4 6 -8 13 -8 6 1 1 10 -12 20
-13 11 -28 20 -35 19 -6 0 -1 -5 12 -11z"/>
<path d="M3690 1643 c1 -9 50 -47 50 -38 0 6 -38 45 -45 45 -3 0 -5 -3 -5 -7z"/>
<path d="M4071 1334 c13 -16 29 -19 29 -5 0 5 -9 11 -21 14 -16 4 -18 3 -8 -9z"/>
</g>
</svg>
